<svg width="32" height="32" viewBox="0 0 32 32" fill="none" xmlns="http://www.w3.org/2000/svg">
<path d="M31.1377 31.5H16.8623L23.999 19.0068L31.1377 31.5ZM15.1377 31.5H0.862305L7.99902 19.0068L15.1377 31.5ZM23.1377 17.5H8.86133L15.999 5.00781L23.1377 17.5Z" fill="#F9F100" stroke="black"/>
<path d="M30.1485 6.74897C29.4834 6.47631 28.702 6.51298 28.0642 6.84676C27.2016 7.29907 26.5088 8.28074 25.5413 8.1957C24.7369 8.12448 23.9544 7.4633 23.2464 7.07052C22.1773 6.47844 20.5705 6.82231 20.0485 7.93846L20.0113 7.93473C20.037 7.80292 20.0485 7.66846 20.0428 7.53346C20.0008 6.60812 19.264 5.79919 18.3841 5.55098C18.3075 5.52972 18.2305 5.51324 18.1524 5.49889L18.1514 5.48348C18.1692 5.48348 18.187 5.48401 18.2048 5.48348C18.9459 5.46753 19.6162 4.87438 19.8027 4.14677C19.9898 3.41915 19.7231 2.61021 19.1927 2.08456C18.6629 1.55891 17.9009 1.30698 17.1603 1.3325C16.4193 1.35801 15.7013 1.64448 15.0892 2.06862C15.0557 2.09466 15.0232 2.11964 14.9902 2.14462C14.6249 1.67265 14.1605 1.27616 13.6375 0.994996C12.5181 0.393875 11.1613 0.306178 9.94489 0.664406C8.72484 1.0237 7.63581 1.82413 6.91888 2.88818C6.49123 3.52226 6.19933 4.24775 6.05573 5.00194L5.96349 5.0519C4.90591 4.75905 3.81688 5.23793 3.63136 6.55444C2.85468 6.33174 1.97633 6.51298 1.34744 7.02641C0.433982 7.77157 0.138928 9.15239 0.551375 10.2653C1.38361 12.5083 4.67008 13.2667 6.6537 12.2127C6.78524 14.2144 8.99579 14.9951 10.7902 14.3871C12.0538 15.2587 13.5102 15.6409 14.9902 15.2959C17.7049 14.6438 18.808 12.5811 18.808 12.5811L18.83 12.5343C19.6885 13.0057 21.0511 13.2088 22.2638 12.0474C22.8492 11.5149 22.9776 10.6475 23.6641 10.2579C24.8045 9.61107 25.7384 10.7378 26.9621 10.2738C27.7912 9.95973 28.125 9.02058 28.766 8.47261C29.7009 7.67377 30.6694 8.59007 31.6699 8.71019C31.5043 7.73277 30.8135 7.02163 30.1485 6.74897Z" fill="#167FBB"/>
<mask id="mask0_125_74" style="mask-type:luminance" maskUnits="userSpaceOnUse" x="0" y="0" width="32" height="16">
<path d="M0 0H32V15.7301H0V0Z" fill="white"/>
</mask>
<g mask="url(#mask0_125_74)">
<path d="M32.0037 8.65222C31.8003 7.4521 30.9456 6.70535 30.2753 6.43057C29.5185 6.12018 28.6344 6.16163 27.9091 6.54165C27.5873 6.71014 27.297 6.93868 27.0161 7.15925C26.5329 7.53927 26.0759 7.89856 25.5707 7.85338C25.0639 7.80874 24.5288 7.46752 24.0121 7.13746C23.8134 7.01043 23.608 6.87968 23.4089 6.76913C22.7559 6.40772 21.9173 6.33968 21.1648 6.58736C20.8393 6.69472 20.55 6.85417 20.31 7.05667C20.1486 6.44333 19.7304 5.89057 19.1717 5.535C19.6298 5.25224 19.9882 4.78719 20.1308 4.23337C20.342 3.41061 20.0668 2.47093 19.4296 1.83898C18.8552 1.26868 18.0235 0.959354 17.1488 0.989117C16.4429 1.01357 15.7207 1.25327 15.0488 1.68431C14.6951 1.28676 14.2711 0.946598 13.7958 0.69148C12.6349 0.0680356 11.1969 -0.0621808 9.85053 0.334315C8.5461 0.718586 7.40572 1.55675 6.639 2.69416C6.23494 3.29368 5.94617 3.96177 5.78004 4.66069C5.2046 4.56502 4.6407 4.67132 4.19943 4.96524C3.79484 5.2347 3.51237 5.63917 3.37034 6.14728C2.58528 6.03142 1.75567 6.25252 1.13517 6.7585C0.136279 7.57382 -0.242627 9.09974 0.234281 10.386C0.617379 11.4181 1.49206 12.2334 2.69691 12.681C3.32318 12.9132 3.98456 13.0286 4.62865 13.0286C5.24653 13.0286 5.84869 12.9223 6.38692 12.7123C6.51374 13.2576 6.79412 13.7349 7.21862 14.1112C8.08439 14.8782 9.47948 15.1317 10.7367 14.7634C11.7487 15.4277 12.8205 15.7663 13.8943 15.7663C14.2852 15.7663 14.6773 15.7211 15.0656 15.6308C16.6352 15.2646 18.134 14.2377 18.961 12.9797C19.254 13.1056 19.5831 13.1992 19.9374 13.2353C20.0354 13.2454 20.1402 13.2513 20.2518 13.2513C20.8792 13.2513 21.6993 13.0589 22.4933 12.3004C22.7884 12.0304 22.9718 11.7067 23.1489 11.3937C23.3512 11.0376 23.5252 10.7304 23.8292 10.5576C24.3056 10.2876 24.7295 10.403 25.2667 10.5486C25.7955 10.6926 26.395 10.8553 27.0805 10.5954C27.6832 10.3674 28.0412 9.88954 28.3876 9.42714C28.5825 9.16671 28.7665 8.92116 28.984 8.73513C29.4431 8.34289 29.8953 8.48586 30.5944 8.75214C30.9251 8.87758 31.2668 9.00779 31.63 9.05137C31.7359 9.06413 31.8417 9.02533 31.9156 8.94667C31.989 8.86801 32.0215 8.75905 32.0037 8.65222ZM17.1718 1.67581C17.8526 1.65242 18.5192 1.89691 18.9558 2.33008C19.4154 2.78557 19.624 3.48077 19.4752 4.0601C19.32 4.66335 18.7708 5.12734 18.1975 5.1401C17.8699 5.14754 17.5518 5.00882 17.3642 4.77868C17.175 4.54695 17.1221 4.20945 17.2363 3.95858C17.3474 3.71303 17.6351 3.55465 17.8778 3.60461L18.0146 2.93173C17.4632 2.8164 16.8642 3.13477 16.6205 3.67158C16.3983 4.16108 16.4874 4.78187 16.8417 5.21663C16.8433 5.21876 16.8454 5.22035 16.8469 5.22248C16.5702 5.29423 16.2966 5.40213 16.0341 5.54244C16.1703 5.02795 16.207 4.48264 16.1289 3.94689C16.0404 3.34045 15.8087 2.75368 15.4665 2.23069C16.0199 1.88681 16.6053 1.69548 17.1718 1.67581ZM6.37539 11.3341C6.33241 11.5622 6.31197 11.7838 6.31093 11.999C5.3461 12.4327 4.05426 12.4529 2.9296 12.0357C1.91289 11.6578 1.18076 10.986 0.868411 10.1441C0.491077 9.12738 0.781939 7.92832 1.56019 7.29372C2.10628 6.84833 2.86461 6.69153 3.5391 6.885C3.63343 6.91157 3.73405 6.89616 3.81581 6.84195C3.89809 6.78827 3.95259 6.7011 3.96674 6.60277C4.03382 6.12602 4.24293 5.75823 4.57152 5.53978C4.86762 5.34207 5.25439 5.27191 5.65845 5.33675C5.60867 5.74919 5.6008 6.16801 5.63749 6.58577C5.75698 7.9448 6.3953 9.16086 7.32134 9.86988C6.84234 10.2111 6.48649 10.7405 6.37539 11.3341ZM14.9141 14.9611C13.5992 15.2672 12.2387 14.9706 10.9804 14.1027C10.8929 14.0426 10.7829 14.0272 10.6828 14.0613C9.60526 14.4264 8.39203 14.2382 7.66461 13.5935C7.09022 13.0849 6.87483 12.3482 7.04096 11.4628C7.15626 10.8462 7.66828 10.3094 8.25786 10.1861C8.84535 10.0628 9.51512 10.3503 9.85053 10.8696C10.0161 11.1258 10.0869 11.4102 10.045 11.6499C10.0041 11.8832 9.83323 12.0862 9.64771 12.1218C9.567 12.1372 9.46848 12.1107 9.39196 12.0533C9.3537 12.0246 9.28819 11.9634 9.27876 11.8752L8.60532 11.9491C8.6331 12.2074 8.76884 12.4402 8.98842 12.605C9.21902 12.7782 9.50516 12.8484 9.77401 12.7968C10.2357 12.7081 10.6214 12.2861 10.7116 11.77C10.785 11.3538 10.6801 10.9004 10.4171 10.4933C9.92809 9.73541 8.98423 9.33254 8.12108 9.51324C8.09592 9.51803 8.07129 9.52547 8.04666 9.53185C7.10123 9.00248 6.42884 7.84701 6.3125 6.52464C6.20716 5.32825 6.52999 4.07339 7.19818 3.08215C7.8669 2.09038 8.90248 1.32927 10.0397 0.994432C11.2184 0.646834 12.4719 0.757917 13.4787 1.29845C14.5352 1.86609 15.2941 2.91951 15.4586 4.04734C15.6305 5.22354 15.1348 6.45077 14.2245 7.10185C13.2942 7.76781 11.9411 7.76143 11.0774 7.08697C10.5617 6.68409 10.2368 6.06437 10.2294 5.46909C10.2221 4.84406 10.5785 4.24187 11.0957 4.00429C11.6182 3.76406 12.3095 3.94583 12.6045 4.40026C12.7508 4.62508 12.7937 4.93282 12.7198 5.22354C12.6528 5.48929 12.4961 5.70455 12.2906 5.81457L12.6066 6.4226C12.9808 6.22222 13.2612 5.84805 13.376 5.39468C13.4986 4.91209 13.4237 4.41195 13.1705 4.02236C12.6863 3.27721 11.6523 2.99445 10.8164 3.37819C10.0492 3.73057 9.54132 4.57406 9.5518 5.4776C9.56176 6.29026 9.97735 7.09547 10.6639 7.63122C11.6167 8.37531 12.9793 8.48852 14.0945 7.96712C13.8932 8.66126 13.8796 9.39897 14.0924 10.0777C14.357 10.9233 15.0509 11.7035 15.9031 12.1133C16.5875 12.4423 17.3149 12.5119 17.9774 12.3164C18.0837 12.4285 18.2148 12.5412 18.3652 12.6475C17.6257 13.7434 16.3024 14.6374 14.9141 14.9611ZM30.8324 8.1085C30.1296 7.84169 29.333 7.53874 28.5474 8.21002C28.2728 8.44494 28.0569 8.73301 27.8483 9.01151C27.547 9.41332 27.2624 9.79334 26.8436 9.95226C26.361 10.1351 25.915 10.0134 25.4423 9.88529C24.8668 9.72903 24.2149 9.55151 23.4985 9.95811C23.031 10.2233 22.7925 10.6443 22.562 11.0514C22.4032 11.331 22.2538 11.5951 22.0374 11.7918C22.0353 11.7939 22.0332 11.7955 22.0311 11.7976C21.4294 12.3738 20.7481 12.6278 20.0055 12.5518C19.1728 12.4668 18.557 11.9948 18.3646 11.7174C18.2997 11.6238 18.1948 11.5717 18.0874 11.5717C18.0455 11.5717 18.003 11.5792 17.9627 11.5956C17.4166 11.8152 16.7882 11.7785 16.1934 11.4925C15.5053 11.1614 14.9477 10.5396 14.738 9.86935C14.3544 8.64584 14.8795 7.17679 15.9859 6.37689C16.6997 5.86081 17.5623 5.67585 18.2934 5.88207C19.0774 6.10317 19.6706 6.80421 19.7042 7.54937C19.7215 7.92726 19.5642 8.33067 19.2839 8.6283C19.0334 8.89405 18.7221 9.04021 18.4071 9.04021C18.4066 9.04021 18.4066 9.04021 18.4066 9.04021C18.0801 9.04021 17.7766 8.88555 17.6341 8.64691C17.4973 8.41836 17.534 8.0883 17.7132 7.94055L17.2856 7.40746C16.8406 7.77472 16.739 8.47576 17.0545 9.00354C17.3217 9.44946 17.8395 9.72691 18.406 9.72744C18.4066 9.72744 18.4066 9.72744 18.4071 9.72744C18.9086 9.72744 19.3939 9.50527 19.7734 9.10293C20.0511 8.80848 20.2419 8.45025 20.3294 8.07342L20.3546 8.08565C20.5359 7.69766 20.898 7.39736 21.3739 7.24057C21.9435 7.05295 22.5992 7.10344 23.0839 7.37238C23.2647 7.4723 23.4524 7.59242 23.651 7.71892C24.2091 8.07502 24.8417 8.47895 25.512 8.53795C26.2818 8.60492 26.8662 8.14624 27.4311 7.70244C27.6995 7.49144 27.9531 7.29212 28.2199 7.15234C28.7717 6.86321 29.4452 6.83132 30.0216 7.0673C30.4493 7.2427 30.9199 7.65407 31.1756 8.235C31.0635 8.19673 30.9492 8.15315 30.8324 8.1085Z" fill="#004277"/>
</g>
</svg>
